# xmcd
# 
# Track frame offsets:
#     150
#     46480
#     76150
#     104972
# 
# Disc length: 2794
# 
# Revision: 1
# Processed by: cddbd v1.5.2PL0 Copyright (c) Steve Scherf et al.
# Submitted via: BonkEnc v1.0.8
# 
DISCID=2f0ae804
DTITLE=Globe Unity - Improvisations
DYEAR=1977
DGENRE=Free, Avant
TTITLE0=Improvisation 1
TTITLE1=Improvisation 2
TTITLE2=Improvisation 3
TTITLE3=Improvisation 4
EXTD=YEAR: 1978
EXTT0=
EXTT1=
EXTT2=
EXTT3=
PLAYORDER=
